<svg width="150" height="48" viewBox="0 0 150 48" fill="none" xmlns="http://www.w3.org/2000/svg">
<path d="M15.4219 20.6562C14.9297 18.1133 12.8242 16.6914 10.3086 16.6914C6.89062 16.6914 4.34766 19.3164 4.34766 24.1016C4.34766 28.9141 6.91797 31.5117 10.3086 31.5117C12.7969 31.5117 14.9023 30.1172 15.4219 27.6016L18.457 27.6289C17.8281 31.5391 14.6289 34.2734 10.2812 34.2734C5.11328 34.2734 1.36719 30.418 1.36719 24.1016C1.36719 17.7578 5.14062 13.9297 10.2812 13.9297C14.4648 13.9297 17.7734 16.3906 18.457 20.6562H15.4219ZM21.7109 34V14.2031H24.7188V31.4023H33.6602V34H21.7109ZM39.7578 14.2031V34H36.75V14.2031H39.7578ZM43.7773 34V14.2031H50.832C55.4258 14.2031 57.6953 16.9648 57.6953 20.6289C57.6953 24.2656 55.4258 27.0547 50.832 27.0547H46.7852V34H43.7773ZM46.7852 24.4844H50.5312C53.457 24.4844 54.6602 22.8438 54.6602 20.6289C54.6602 18.3867 53.457 16.7734 50.5312 16.7734H46.7852V24.4844ZM60.8672 34V14.2031H67.9219C72.5156 14.2031 74.7852 16.7734 74.7852 20.4102C74.7852 23.0762 73.582 25.0996 71.1758 25.9883L75.5508 34H72.1328L68.1133 26.5352H67.9219H63.875V34H60.8672ZM63.875 23.9375H67.6211C70.5469 23.9375 71.75 22.6523 71.75 20.4102C71.75 18.168 70.5469 16.7734 67.6211 16.7734H63.875V23.9375ZM95.3203 24.1016C95.3203 30.418 91.5195 34.2734 86.4062 34.2734C81.2383 34.2734 77.4648 30.418 77.4648 24.1016C77.4648 17.7578 81.2383 13.9297 86.4062 13.9297C91.5195 13.9297 95.3203 17.7578 95.3203 24.1016ZM92.3398 24.1016C92.3398 19.2891 89.7969 16.6914 86.4062 16.6914C82.9883 16.6914 80.4453 19.2891 80.4453 24.1016C80.4453 28.9141 82.9883 31.5117 86.4062 31.5117C89.7969 31.5117 92.3398 28.9141 92.3398 24.1016ZM111.426 14.2031H114.434V27.2188C114.434 31.375 111.316 34.3281 106.586 34.3281C101.801 34.3281 98.7109 31.375 98.7109 27.2188V14.2031H101.719V26.9727C101.719 29.6523 103.578 31.5938 106.586 31.5938C109.566 31.5938 111.426 29.6523 111.426 26.9727V14.2031ZM117.496 16.8008V14.2031H132.836V16.8008H126.684V34H123.676V16.8008H117.496ZM135.898 34V14.2031H148.312V16.8008H138.906V22.7891H147.656V25.3594H138.906V31.4023H148.422V34H135.898Z" fill="white"/>
<path d="M13.6763 23.8131C13.8202 23.8962 13.8202 24.1038 13.6763 24.1869L8.32368 27.2772C8.17982 27.3603 8 27.2565 8 27.0903L8 20.9097C8 20.7435 8.17983 20.6397 8.32369 20.7228L13.6763 23.8131Z" fill="white"/>
</svg>
