<svg width="40" height="54" viewBox="0 0 40 54" fill="none" xmlns="http://www.w3.org/2000/svg">
<path d="M22.4395 0C29.1347 7.06675e-05 34.6962 2.70361 38.3965 7.23535L30.7822 14.8164C28.6422 12.696 25.6923 11.3848 22.4346 11.3848C15.8982 11.3848 10.5986 16.6605 10.5986 23.168C10.5986 29.6754 15.8982 34.9512 22.4346 34.9512C25.6348 34.9511 28.5358 33.6837 30.666 31.6289L38.1074 39.0381C33.238 46.659 26.3402 51.771 23.6133 53.6074C22.8844 54.0982 21.9764 54.1332 21.2129 53.6982C16.5251 51.0271 0 40.4116 0 23.5068C8.5918e-05 10.5244 10.0467 0 22.4395 0Z" fill="white"/>
<ellipse cx="5.40729" cy="5.38336" rx="5.40729" ry="5.38336" transform="matrix(1 0 0 -1 29.1854 16.434)" fill="white"/>
<ellipse cx="5.22979" cy="5.30132" rx="5.22979" ry="5.30132" transform="matrix(1 0 0 -1 29.0079 40.8074)" fill="white"/>
<path d="M29.2387 22.0287C30.064 22.5031 30.064 23.6939 29.2387 24.1683L19.8267 29.5783C19.0041 30.0511 17.9778 29.4573 17.9778 28.5085L17.9778 17.6886C17.9778 16.7397 19.0041 16.1459 19.8267 16.6188L29.2387 22.0287Z" fill="white"/>
</svg>
