<svg width="20" height="20" viewBox="0 0 20 20" fill="none" xmlns="http://www.w3.org/2000/svg">
<path d="M10 2.5C14.1421 2.5 17.5 5.85786 17.5 10C17.5 14.1421 14.1421 17.5 10 17.5C5.85786 17.5 2.5 14.1421 2.5 10C2.5 5.85786 5.85786 2.5 10 2.5ZM13.8662 6.85938C13.5127 6.56527 12.9869 6.61342 12.6924 6.9668L9.69434 10.5645C9.40559 10.9109 9.24292 11.1028 9.11328 11.2207C9.11178 11.222 9.10983 11.2233 9.1084 11.2246C9.10695 11.2236 9.10498 11.2228 9.10352 11.2217C8.96372 11.1159 8.78382 10.9391 8.46484 10.6201L7.25586 9.41113C6.93041 9.08586 6.40253 9.08575 6.07715 9.41113C5.75215 9.73649 5.75215 10.2635 6.07715 10.5889L7.28613 11.7988C7.57024 12.0829 7.84412 12.359 8.09766 12.5508C8.33623 12.7312 8.64001 12.9025 9.01855 12.9287L9.18555 12.9307L9.35156 12.9131C9.72657 12.853 10.0139 12.6555 10.2354 12.4541C10.4704 12.2402 10.7175 11.9404 10.9746 11.6318L13.9736 8.0332C14.2679 7.67964 14.2196 7.1539 13.8662 6.85938Z" fill="#42BCEB"/>
</svg>
