<svg width="21" height="18" viewBox="0 0 21 18" fill="none" xmlns="http://www.w3.org/2000/svg">
<path d="M2.64086 10.051L9.59347 16.5823C9.83297 16.8073 9.95271 16.9197 10.0939 16.9475C10.1575 16.9599 10.2229 16.9599 10.2865 16.9475C10.4277 16.9197 10.5474 16.8073 10.7869 16.5823L17.7395 10.051C19.6957 8.21341 19.9332 5.18942 18.288 3.06889L17.9786 2.67016C16.0105 0.133402 12.0598 0.558836 10.6769 3.45647C10.4815 3.86578 9.89887 3.86578 9.70352 3.45647C8.32056 0.558836 4.36991 0.133406 2.40173 2.67017L2.09237 3.06889C0.447133 5.18942 0.684684 8.21341 2.64086 10.051Z" stroke="black" stroke-width="2"/>
</svg>
