<svg width="113" height="36" viewBox="0 0 113 36" fill="none" xmlns="http://www.w3.org/2000/svg">
<path d="M11.5664 14.9922C11.1973 13.085 9.61816 12.0186 7.73145 12.0186C5.16797 12.0186 3.26074 13.9873 3.26074 17.5762C3.26074 21.1855 5.18848 23.1338 7.73145 23.1338C9.59766 23.1338 11.1768 22.0879 11.5664 20.2012L13.8428 20.2217C13.3711 23.1543 10.9717 25.2051 7.71094 25.2051C3.83496 25.2051 1.02539 22.3135 1.02539 17.5762C1.02539 12.8184 3.85547 9.94727 7.71094 9.94727C10.8486 9.94727 13.3301 11.793 13.8428 14.9922H11.5664ZM16.2832 25V10.1523H18.5391V23.0518H25.2451V25H16.2832ZM29.8184 10.1523V25H27.5625V10.1523H29.8184ZM32.833 25V10.1523H38.124C41.5693 10.1523 43.2715 12.2236 43.2715 14.9717C43.2715 17.6992 41.5693 19.791 38.124 19.791H35.0889V25H32.833ZM35.0889 17.8633H37.8984C40.0928 17.8633 40.9951 16.6328 40.9951 14.9717C40.9951 13.29 40.0928 12.0801 37.8984 12.0801H35.0889V17.8633ZM45.6504 25V10.1523H50.9414C54.3867 10.1523 56.0889 12.0801 56.0889 14.8076C56.0889 16.8071 55.1865 18.3247 53.3818 18.9912L56.6631 25H54.0996L51.085 19.4014H50.9414H47.9062V25H45.6504ZM47.9062 17.4531H50.7158C52.9102 17.4531 53.8125 16.4893 53.8125 14.8076C53.8125 13.126 52.9102 12.0801 50.7158 12.0801H47.9062V17.4531ZM71.4902 17.5762C71.4902 22.3135 68.6396 25.2051 64.8047 25.2051C60.9287 25.2051 58.0986 22.3135 58.0986 17.5762C58.0986 12.8184 60.9287 9.94727 64.8047 9.94727C68.6396 9.94727 71.4902 12.8184 71.4902 17.5762ZM69.2549 17.5762C69.2549 13.9668 67.3477 12.0186 64.8047 12.0186C62.2412 12.0186 60.334 13.9668 60.334 17.5762C60.334 21.1855 62.2412 23.1338 64.8047 23.1338C67.3477 23.1338 69.2549 21.1855 69.2549 17.5762ZM83.5693 10.1523H85.8252V19.9141C85.8252 23.0312 83.4873 25.2461 79.9395 25.2461C76.3506 25.2461 74.0332 23.0312 74.0332 19.9141V10.1523H76.2891V19.7295C76.2891 21.7393 77.6836 23.1953 79.9395 23.1953C82.1748 23.1953 83.5693 21.7393 83.5693 19.7295V10.1523ZM88.1221 12.1006V10.1523H99.627V12.1006H95.0127V25H92.7568V12.1006H88.1221ZM101.924 25V10.1523H111.234V12.1006H104.18V16.5918H110.742V18.5195H104.18V23.0518H111.316V25H101.924Z" fill="#42BCEB"/>
<path d="M10.2572 17.8598C10.3651 17.9221 10.3651 18.0779 10.2572 18.1402L6.24276 20.4579C6.13487 20.5202 6 20.4423 6 20.3178L6 15.6822C6 15.5577 6.13487 15.4798 6.24276 15.5421L10.2572 17.8598Z" fill="#42BCEB"/>
</svg>
