<svg width="63" height="29" viewBox="0 0 63 29" fill="none" xmlns="http://www.w3.org/2000/svg">
<rect x="0.5" y="7.5" width="62" height="21" rx="10.5" fill="#42BCEB"/>
<rect x="0.5" y="7.5" width="62" height="21" rx="10.5" stroke="#42BCEB"/>
<path d="M19.2344 12.4492V23.0547H17.9336V17.2656H15.8945V16.1992H17.9336V12.4492H19.2344ZM14.2422 15.2617C14.2422 17.0898 15.2266 19.0352 16.9375 19.7734L16.1641 20.8164C14.9336 20.2305 14.0547 19.0527 13.5977 17.6523C13.123 19.1465 12.2266 20.4062 10.9961 21.0273L10.2109 20.0078C11.9102 19.2109 12.9062 17.1953 12.918 15.2617V14.5586H10.6445V13.4922H16.5156V14.5586H14.2422V15.2617ZM24.7195 14.3594C24.7195 15.6602 25.5633 16.8789 27.2156 17.3828L26.5945 18.4023C25.4051 18.0332 24.5613 17.2773 24.0984 16.3164C23.6297 17.4297 22.7332 18.3145 21.4617 18.7422L20.8055 17.7109C22.5164 17.1484 23.407 15.7773 23.407 14.3711V14.2422H21.1687V13.1875H26.9227V14.2422H24.7195V14.3594ZM29.2781 12.4492V14.9922H30.7547V16.0586H29.2781V18.7656H27.9773V12.4492H29.2781ZM25.8328 19C28.0242 19 29.3719 19.7383 29.3836 21.0039C29.3719 22.2812 28.0242 23.0312 25.8328 23.0312C23.618 23.0312 22.2469 22.2812 22.2469 21.0039C22.2469 19.7383 23.618 19 25.8328 19ZM25.8328 20.0195C24.3797 20.0195 23.5477 20.3594 23.5477 21.0039C23.5477 21.6602 24.3797 22.0117 25.8328 22.0117C27.2859 22.0117 28.0945 21.6602 28.0945 21.0039C28.0945 20.3594 27.2859 20.0195 25.8328 20.0195ZM39.7906 12.4492V16.668H41.4195V17.7461H39.7906V23.043H38.5016V12.4492H39.7906ZM37.6812 14.0781V15.1211H31.4352V14.0781H33.943V12.6016H35.2437V14.0781H37.6812ZM34.5992 15.8125C36.1227 15.8125 37.2594 16.8438 37.2594 18.3086C37.2594 19.7734 36.1227 20.793 34.5992 20.793C33.0523 20.793 31.9156 19.7734 31.9273 18.3086C31.9156 16.8438 33.0523 15.8125 34.5992 15.8125ZM34.5992 16.8789C33.7672 16.8789 33.1695 17.4414 33.1695 18.3086C33.1695 19.1758 33.7672 19.7266 34.5992 19.7148C35.4078 19.7266 36.0055 19.1758 36.0172 18.3086C36.0055 17.4414 35.4078 16.8789 34.5992 16.8789ZM50.9125 12.4492V23.043H49.6V12.4492H50.9125ZM47.7484 13.5742C47.7484 16.7266 46.5297 19.4102 42.8148 21.168L42.1352 20.125C44.9066 18.8066 46.1957 17.0137 46.4242 14.6055H42.6742V13.5742H47.7484Z" fill="white"/>
<path d="M31.067 0.749999C31.2594 0.416666 31.7406 0.416667 31.933 0.75L37.5622 10.5C37.7546 10.8333 37.5141 11.25 37.1292 11.25L25.8708 11.25C25.4859 11.25 25.2454 10.8333 25.4378 10.5L31.067 0.749999Z" fill="#42BCEB"/>
</svg>
