<svg width="20" height="20" viewBox="0 0 20 20" fill="none" xmlns="http://www.w3.org/2000/svg">
<path d="M8.3335 12.5L8.3335 10" stroke="white" stroke-width="1.66667" stroke-linecap="round"/>
<path d="M11.6665 12.5L11.6665 10" stroke="white" stroke-width="1.66667" stroke-linecap="round"/>
<path d="M2.5 5.8335H17.5C16.7234 5.8335 16.3351 5.8335 16.0289 5.96036C15.6205 6.12952 15.296 6.45398 15.1269 6.86236C15 7.16864 15 7.55693 15 8.3335V13.3335C15 14.9048 15 15.6905 14.5118 16.1787C14.0237 16.6668 13.238 16.6668 11.6667 16.6668H8.33333C6.76198 16.6668 5.97631 16.6668 5.48816 16.1787C5 15.6905 5 14.9048 5 13.3335V8.33349C5 7.55693 5 7.16864 4.87313 6.86236C4.70398 6.45398 4.37952 6.12952 3.97114 5.96036C3.66485 5.8335 3.27657 5.8335 2.5 5.8335Z" stroke="white" stroke-width="1.66667" stroke-linecap="round"/>
<path d="M8.38996 2.80883C8.48492 2.72023 8.69416 2.64194 8.98523 2.5861C9.27631 2.53027 9.63295 2.5 9.99984 2.5C10.3667 2.5 10.7234 2.53027 11.0144 2.5861C11.3055 2.64194 11.5148 2.72023 11.6097 2.80883" stroke="white" stroke-width="1.66667" stroke-linecap="round"/>
</svg>
