<svg xmlns="http://www.w3.org/2000/svg" width="16" height="16" viewBox="0 0 16 16" fill="none">
  <g clip-path="url(#clip0_204_12844)">
    <path d="M13.3333 2H3.99992C3.26659 2 2.66659 2.6 2.66659 3.33333V8.66667C2.66659 10.14 3.85992 11.3333 5.33325 11.3333H9.33325C10.8066 11.3333 11.9999 10.14 11.9999 8.66667V6.66667H13.3333C14.0666 6.66667 14.6666 6.06667 14.6666 5.33333V3.33333C14.6666 2.6 14.0666 2 13.3333 2ZM13.3333 5.33333H11.9999V3.33333H13.3333V5.33333ZM1.99992 14H12.6666C13.0333 14 13.3333 13.7 13.3333 13.3333C13.3333 12.9667 13.0333 12.6667 12.6666 12.6667H1.99992C1.63325 12.6667 1.33325 12.9667 1.33325 13.3333C1.33325 13.7 1.63325 14 1.99992 14Z" fill="currentColor"/>
  </g>
  <defs>
    <clipPath id="clip0_204_12844">
      <rect width="16" height="16" fill="white"/>
    </clipPath>
  </defs>
</svg>
