<svg xmlns="http://www.w3.org/2000/svg" width="16" height="16" viewBox="0 0 16 16" fill="none">
  <g clip-path="url(#clip0_204_12841)">
    <path d="M5.40008 8.8933L7.28675 7.00664L3.16008 2.88664C2.84008 2.56664 2.28675 2.6533 2.08675 3.06664C1.61342 4.05997 1.78675 5.27997 2.60675 6.10664L5.40008 8.8933ZM9.92008 7.68664C10.9401 8.15997 12.3734 7.82664 13.4334 6.76664C14.7067 5.4933 14.9534 3.66664 13.9734 2.68664C13.0001 1.7133 11.1734 1.95331 9.89342 3.22664C8.83342 4.28664 8.50008 5.71997 8.97342 6.73997L2.94008 12.7733C2.68008 13.0333 2.68008 13.4533 2.94008 13.7133C3.20008 13.9733 3.62008 13.9733 3.88008 13.7133L8.00008 9.60664L12.1201 13.7266C12.3801 13.9866 12.8001 13.9866 13.0601 13.7266C13.3201 13.4666 13.3201 13.0466 13.0601 12.7866L8.94008 8.66664L9.92008 7.68664Z" fill="currentColor"/>
  </g>
  <defs>
    <clipPath id="clip0_204_12841">
      <rect width="16" height="16" fill="white"/>
    </clipPath>
  </defs>
</svg>
